<svg width="17.540310824431092in" height="23.625761900772112in" viewBox="0 0 17.540310824431092 23.625761900772112" xmlns="http://www.w3.org/2000/svg" xmlnsXlink="http://www.w3.org/1999/xlink">
        <g transform="translate(0 23.625761900772112)">
          <g transform="scale(1, -1)"><g fill="none" stroke="rgb(0,0,0)"><g transform="matrix(0.5000000000000003,-0.8660254037844385,-0.8660254037844385,-0.5000000000000003,7.301943370700151,13.719615328887244)"><path class="outline" d="M -0.5534569426114535 -7.678792631237311 C -0.5534569426114535 -7.678792631237311 -6.366151652685408 -4.319128504202243 -6.366151652685408 -4.319128504202243 C -6.708640668712546 -4.1211741972577265 -6.919581718862673 -3.7556119827473107 -6.919581715997909 -3.360030595752017 C -6.919581715997909 -3.360030595752017 -6.919581715997909 3.360030462796569 -6.919581715997909 3.360030462796569 C -6.919581677400602 3.7556118136959458 -6.708640634445026 4.1211739812634285 -6.366151652685407 4.319128275363445 C -6.366151652685407 4.319128275363445 -0.5534569426114535 7.67879262612633 -0.5534569426114535 7.67879262612633 C -0.21104371799488558 7.876703165607007 0.21099029622266324 7.876703896513257 0.5534042067692758 7.678794543793319 C 0.5534042067692758 7.678794543793319 6.366150693851914 4.319126357696458 6.366150693851914 4.319126357696458 C 6.70864010244697 4.121173300328559 6.919581683978318 3.7556115643687873 6.919581715997908 3.36003046279657 C 6.919581715997908 3.36003046279657 6.919581715997908 -3.360030595752017 6.919581715997908 -3.360030595752017 C 6.919581736654876 -3.755611745297004 6.708640147326467 -4.121173542910173 6.366150693851914 -4.319126618496371 C 6.366150693851914 -4.319126618496371 0.5534042067692754 -7.6787945489043 0.5534042067692754 -7.6787945489043 C 0.21099029470608327 -7.876703895013257 -0.21104371624285423 -7.876703163699687 -0.5534569426114531 -7.678792631237311 C -0.5534569426114531 -7.678792631237311 -0.5534569426114535 -7.678792631237311 -0.5534569426114535 -7.678792631237311 M 0.4310746315318796 -6.045601952344506 C 0.4310746315318796 -6.045601952344506 2.823383663715291 -3.2380109474610417 2.823383663715291 -3.2380109474610417 C 2.9707345087275714 -3.065081395822627 2.8756270559658064 -2.79748845713615 2.6521902486757463 -2.7563436579056178 C 2.634559176301049 -2.753096981845956 2.6166689509788936 -2.7514635194382033 2.5987414408751985 -2.7514635282883684 C 2.5987414408751985 -2.7514635282883684 -2.7759213418334423 -2.7514635282883684 -2.7759213418334423 -2.7514635282883684 C -2.993827957703352 -2.751463527875188 -3.130019593116187 -2.9873543588620004 -3.0210662855390567 -3.1760670240646296 C -3.0109869585193163 -3.193524930645369 -2.999071593890323 -3.2098562091212473 -2.98552298287339 -3.2247829125370897 C -2.98552298287339 -3.2247829125370897 -0.4131263232385416 -6.058829699618411 -0.4131263232385416 -6.058829699618411 C -0.18528934323589638 -6.309841202259571 0.21121374448546595 -6.303628412735807 0.43107463153188 -6.045601952344506 C 0.43107463153188 -6.045601952344506 0.4310746315318796 -6.045601952344506 0.4310746315318796 -6.045601952344506 M 1.5308387191168467 -6.085176845981379 C 1.5308387191168467 -6.085176845981379 4.9379474296141215 -4.108150106109185 4.9379474296141215 -4.108150106109185 C 5.177997969322903 -3.9688570083179044 5.177240355070031 -3.621936490221657 4.936583723956561 -3.4836931735373264 C 4.934487284689139 -3.482488890421524 4.932378784739597 -3.481305725882125 4.930258543824665 -3.480143859328839 C 4.930258543824665 -3.480143859328839 4.487320297430985 -3.237418676011715 4.487320297430985 -3.237418676011715 C 4.161005790818096 -3.0586020595335315 3.7539356892926676 -3.133926565903494 3.5132132249581063 -3.4176680586736126 C 3.5132132249581063 -3.4176680586736126 1.3914898493585786 -5.918559710483444 1.3914898493585786 -5.918559710483444 C 1.3366062498861804 -5.98325203767894 1.3723354986914642 -6.083097981420099 1.4558024972088988 -6.098282409216579 C 1.4815772321164131 -6.102971383399528 1.5081793798610534 -6.098325145602694 1.5308387191168478 -6.085176845981381 C 1.5308387191168478 -6.085176845981381 1.5308387191168467 -6.085176845981379 1.5308387191168467 -6.085176845981379 M -1.4895562069491557 -5.929859563211808 C -1.4895562069491557 -5.929859563211808 -3.796029410020878 -3.3322103934920095 -3.796029410020878 -3.3322103934920095 C -4.037456642840563 -3.060304675388938 -4.444983972786702 -3.0140231123036703 -4.741235451158046 -3.2248663949733123 C -4.741235451158046 -3.2248663949733123 -5.051766111107539 -3.4458722098257866 -5.051766111107539 -3.4458722098257866 C -5.295182444563507 -3.619112490776464 -5.277405723355978 -3.9862059419691165 -5.018389085215629 -4.135115604192521 C -5.018389085215629 -4.135115604192521 -1.6193108609206566 -6.089259239388236 -1.6193108609206566 -6.089259239388236 C -1.5498229116559787 -6.129208245081221 -1.463146876152764 -6.078953461977848 -1.4632939969990482 -5.99880062981126 C -1.4633406470558084 -5.973385236517148 -1.4726814962155743 -5.948864523884754 -1.4895562069491557 -5.929859563211809 C -1.4895562069491557 -5.929859563211809 -1.4895562069491557 -5.929859563211808 -1.4895562069491557 -5.929859563211808 M 5.974867684287696 -2.3918289180433856 C 5.974867684287696 -2.3918289180433856 6.068439925369035 1.372224165211043 6.068439925369035 1.372224165211043 C 6.070531780221381 1.456387929898492 5.980729241631718 1.5112547821102378 5.90679535590808 1.4709844992096723 C 5.883880038827308 1.458502992353017 5.866182590544039 1.4382394876771898 5.8568985641704545 1.4138528801923504 C 5.8568985641704545 1.4138528801923504 4.725690139406588 -1.5575550828527824 4.725690139406588 -1.5575550828527824 C 4.594099279820011 -1.903212208035849 4.72927771733827 -2.293476421011258 5.0464790712597685 -2.483682371462143 C 5.0464790712597685 -2.483682371462143 5.410765484574323 -2.702122531980347 5.410765484574323 -2.702122531980347 C 5.655580511000965 -2.8489231719534356 5.967773684818499 -2.677196225617881 5.974867684287696 -2.3918289180433856 C 5.974867684287696 -2.3918289180433856 5.974867684287696 -2.3918289180433856 5.974867684287696 -2.3918289180433856 M -5.5182239678122205 -2.684536672336126 C -5.5182239678122205 -2.684536672336126 -5.079997716858762 -2.407387135693674 -5.079997716858762 -2.407387135693674 C -4.7641256935556875 -2.2076186604419936 -4.628851533695719 -1.8156338351319168 -4.754286037963349 -1.4635702557189176 C -4.754286037963349 -1.4635702557189176 -5.8002043377181565 1.47206334201004 -5.8002043377181565 1.47206334201004 C -5.829475596829955 1.554219463187924 -5.936706743807752 1.5738799714693603 -5.993220402268294 1.5074522568888433 C -6.010435200986919 1.4872175071488267 -6.019991633943242 1.4615766331745792 -6.0202195497267255 1.4350108196850682 C -6.0202195497267255 1.4350108196850682 -6.052989921666896 -2.3870085616338805 -6.052989921666896 -2.3870085616338805 C -6.055290017556187 -2.6552751743561247 -5.766320450481773 -2.8254317342177786 -5.532844700932462 -2.693290369327923 C -5.527900501727503 -2.690492077717373 -5.523025467072701 -2.68757330642136 -5.5182239678122205 -2.684536672336126 C -5.5182239678122205 -2.684536672336126 -5.5182239678122205 -2.684536672336126 -5.5182239678122205 -2.684536672336126 M -3.622544853349025 -1.048797583409832 C -3.622544853349025 -1.048797583409832 -0.9831428316715469 3.521481723039277 -0.9831428316715469 3.521481723039277 C -0.8670359322102562 3.722527599563318 -1.012107665523547 3.9738706780327093 -1.2442719516501215 3.973899264258813 C -1.2609208052380425 3.973901314220506 -1.2775412405971467 3.9725247509200434 -1.2939628995306862 3.96978368399914 C -1.2939628995306862 3.96978368399914 -5.0093304418575695 3.3496232840512428 -5.0093304418575695 3.3496232840512428 C -5.338625006235366 3.294658227261028 -5.538883773911879 2.9561768875110244 -5.428523496380193 2.641094871616997 C -5.428523496380193 2.641094871616997 -4.153530414386379 -0.9990543244899048 -4.153530414386379 -0.9990543244899048 C -4.078867725043222 -1.212218871902805 -3.8014461526654526 -1.2646219818742603 -3.6541715840912476 -1.09337992248177 C -3.6422650100334275 -1.0795356703362065 -3.631676829731971 -1.0646101363537948 -3.622544853349025 -1.048797583409832 C -3.622544853349025 -1.048797583409832 -3.622544853349025 -1.048797583409832 -3.622544853349025 -1.048797583409832 M 4.086611954619434 -1.0133473677369071 C 4.086611954619434 -1.0133473677369071 5.4749213532779715 2.6395457163016425 5.4749213532779715 2.6395457163016425 C 5.59206797232878 2.947779823985919 5.396399695798588 3.2858109191542115 5.0707704786113155 3.33774557433708 C 5.0707704786113155 3.33774557433708 1.3681799678938598 3.928270348648294 1.3681799678938598 3.928270348648294 C 1.1313515528896272 3.966041974229453 0.9424448092996626 3.7332749605679116 1.0281478295062607 3.509289724045664 C 1.0333533283390712 3.4956851289628674 1.0395065765060247 3.4824623722316175 1.0465622842905824 3.4697187772473064 C 1.0465622842905824 3.4697187772473064 3.549892121831529 -1.051641931009063 3.549892121831529 -1.051641931009063 C 3.660484096983588 -1.2513864937934875 3.9458339134278972 -1.2565075204784752 4.063521791490995 -1.0608597791498826 C 4.072616404658769 -1.0457406304846475 4.080343767855534 -1.0298401079496726 4.086611954619434 -1.0133473677369071 C 4.086611954619434 -1.0133473677369071 4.086611954619434 -1.0133473677369071 4.086611954619434 -1.0133473677369071 M -4.262708245884841 4.188799471895657 C -4.262708245884841 4.188799471895657 -1.1179262157474976 4.806070586914565 -1.1179262157474976 4.806070586914565 C -0.7511677456066356 4.878059496053744 -0.4832326366419537 5.1945516618678305 -0.4727571370722084 5.5681616756092716 C -0.4727571370722084 5.5681616756092716 -0.4608641179832558 5.992328199465964 -0.4608641179832558 5.992328199465964 C -0.4531543994658384 6.267298124361834 -0.7459995006885343 6.447500342521518 -0.9879853001837626 6.316692192165693 C -0.9908895643042934 6.3151222594731795 -0.9937719322601555 6.313512153380158 -0.9966315734225543 6.311862337886489 C -0.9966315734225543 6.311862337886489 -4.336278261445058 4.3851164748743825 -4.336278261445058 4.3851164748743825 C -4.4071332389586075 4.3442377664821885 -4.407165099942443 4.241985810618247 -4.336335611244132 4.201062954303034 C -4.314083519281579 4.188206456552851 -4.287926184285479 4.183849652309851 -4.262708245884841 4.188799471895657 C -4.262708245884841 4.188799471895657 -4.262708245884841 4.188799471895657 -4.262708245884841 4.188799471895657 M 4.463849012328085 4.320430690859643 C 4.463849012328085 4.320430690859643 0.9039818260459185 6.282954466871855 0.9039818260459185 6.282954466871855 C 0.6614457822296814 6.416662583710984 0.36511747264952765 6.237677187555736 0.37059086868278274 5.960780753857936 C 0.37064283809705295 5.958151646556811 0.3707236308963697 5.95552318822701 0.3708332325291489 5.952895852408554 C 0.3708332325291489 5.952895852408554 0.3868955473006428 5.567857405780464 0.3868955473006428 5.567857405780464 C 0.4025300887664788 5.193072705052454 0.6725710998130983 4.8776453629311725 1.0404685778241984 4.804437054251728 C 1.0404685778241984 4.804437054251728 4.396709893013024 4.136575966415339 4.396709893013024 4.136575966415339 C 4.4714791670613705 4.121697506762822 4.534316368362392 4.193338582918374 4.509816855366479 4.26552990349302 C 4.501877984640898 4.288922922025543 4.485482754524125 4.308504241972578 4.463849012328087 4.320430690859645 C 4.463849012328087 4.320430690859645 4.463849012328085 4.320430690859643 4.463849012328085 4.320430690859643" stroke-width="0.01"></path></g></g><g fill="none" stroke="rgb(0,0,0)"><g transform="matrix(0.5083427837779891,0.8611548142934838,0.8611548142934838,-0.5083427837779891,7.247207451440623,13.666026744918398)"><path class="outline" d="M -0.00003121003023428276 -0.1278756759147218 C -0.057134187201082993 -0.1278756759147218 -0.1278756759147222 -0.05714591693082782 -0.1278756759147222 0.00003121003023428277 C -0.1278756759147222 0.05720859268022797 -0.05720849679687877 0.12787567591472226 -0.00003121003023428276 0.12787567591472226 C 0.05714620458087576 0.12787567591472226 0.12787567591472174 0.05713434700666542 0.12787567591472174 0.00003121003023428277 C 0.12787567591472174 -0.057071639296148884 0.05707189498508044 -0.1278756759147218 -0.00003121003023428276 -0.1278756759147218 C -0.00003121003023428276 -0.1278756759147218 -0.00003121003023428276 -0.1278756759147218 -0.00003121003023428276 -0.1278756759147218" stroke-width="0.01"></path></g></g><g fill="none" stroke="rgb(0,0,0)"><g transform="matrix(0.5083427837779891,0.8611548142934838,0.8611548142934838,-0.5083427837779891,1.0447336777369265,10.135721870692118)"><path class="outline" d="M -4.541947827067642e-16 -0.12787567591472204 C -0.05710268952080119 -0.12787567591472204 -0.12784446588448836 -0.05714569320301264 -0.12784446588448836 0.00003121003023405567 C -0.12784446588448836 0.05720811326348075 -0.05717683931101411 0.12787567591472204 -4.541947827067642e-16 0.12787567591472204 C 0.05717715892217802 0.12787567591472204 0.12784446588448747 0.057208368952412554 0.12784446588448747 0.00003121003023405567 C 0.12784446588448747 -0.05714591693082782 0.057103328743129456 -0.12787567591472204 -4.541947827067642e-16 -0.12787567591472204 C -4.541947827067642e-16 -0.12787567591472204 -4.541947827067642e-16 -0.12787567591472204 -4.541947827067642e-16 -0.12787567591472204" stroke-width="0.01"></path></g></g><g fill="none" stroke="rgb(0,0,0)"><g transform="matrix(0.5083427837779891,0.8611548142934838,0.8611548142934838,-0.5083427837779891,7.256259544945479,6.468999626881669)"><path class="outline" d="M 0.00003116208855924292 -0.1278756279730476 C -0.057145677222454415 -0.1278756279730476 -0.12787562797304716 -0.05713449083169006 -0.12787562797304716 -0.00003116208855969711 C -0.12787562797304716 0.05707120782107623 -0.05707120782107668 0.12787562797304672 0.00003116208855924292 0.12787562797304672 C 0.0571341712205248 0.12787562797304672 0.12787562797304716 0.057145677222453964 0.12787562797304716 -0.00003116208855969711 C 0.12787562797304716 -0.05720864062190298 0.05720864062190253 -0.1278756279730476 0.00003116208855924292 -0.1278756279730476 C 0.00003116208855924292 -0.1278756279730476 0.00003116208855924292 -0.1278756279730476 0.00003116208855924292 -0.1278756279730476" stroke-width="0.01"></path></g></g><g fill="none" stroke="rgb(0,0,0)"><g transform="matrix(0.5083427837779891,0.8611548142934838,0.8611548142934838,-0.5083427837779891,13.515476356618517,10.005786386536139)"><path class="outline" d="M 0.00003121003023428276 -0.12787562797304852 C -0.0571460767364102 -0.12787562797304852 -0.12787567591472174 -0.05713449083169097 -0.12787567591472174 -0.0000311620885606055 C -0.12787567591472174 0.05707216665456976 -0.05707202282954645 0.12787562797304672 0.00003121003023428276 0.12787562797304672 C 0.057134283084432615 0.12787562797304672 0.1278756759147222 0.057145996833618776 0.1278756759147222 -0.0000311620885606055 C 0.1278756759147222 -0.05720832101073817 0.05720830503017952 -0.12787562797304852 0.00003121003023428276 -0.12787562797304852 C 0.00003121003023428276 -0.12787562797304852 0.00003121003023428276 -0.12787562797304852 0.00003121003023428276 -0.12787562797304852" stroke-width="0.01"></path></g></g><g fill="none" stroke="rgb(0,0,0)"><g transform="matrix(0.5083427837779891,0.8611548142934838,0.8611548142934838,-0.5083427837779891,13.592139145844019,17.224052153678173)"><path class="outline" d="M 0.0000311620885606055 -0.1278444658844879 C -0.05714631644478268 -0.1278444658844879 -0.12787562797304672 -0.05710364835429516 -0.12787562797304672 0 C -0.12787562797304672 0.05710268952080073 -0.05714631644478268 0.1278444658844879 0.0000311620885606055 0.1278444658844879 C 0.057208001399574264 0.1278444658844879 0.12787562797304852 0.057176519699848834 0.12787562797304852 0 C 0.12787562797304852 -0.05717747853334327 0.057208001399574264 -0.1278444658844879 0.0000311620885606055 -0.1278444658844879 C 0.0000311620885606055 -0.1278444658844879 0.0000311620885606055 -0.1278444658844879 0.0000311620885606055 -0.1278444658844879" stroke-width="0.01"></path></g></g><g fill="none" stroke="rgb(0,0,0)"><g transform="matrix(0.5083427837779891,0.8611548142934838,0.8611548142934838,-0.5083427837779891,7.393831465071593,20.87405532668795)"><path class="outline" d="M 0 -0.12787567591472204 C -0.057101730687307194 -0.12787567591472204 -0.1278444658844879 -0.05714607673641023 -0.1278444658844879 0.00003121003023405567 C -0.1278444658844879 0.05720849679687834 -0.05717651969984974 0.12787567591472204 0 0.12787567591472204 C 0.05717779814450718 0.12787567591472204 0.1278444658844879 0.05720849679687834 0.1278444658844879 0.00003121003023405567 C 0.1278444658844879 -0.05714607673641023 0.057103648354294254 -0.12787567591472204 0 -0.12787567591472204 C 0 -0.12787567591472204 0 -0.12787567591472204 0 -0.12787567591472204" stroke-width="0.01"></path></g></g><g fill="none" stroke="rgb(0,0,0)"><g transform="matrix(0.5083427837779891,0.8611548142934838,0.8611548142934838,-0.5083427837779891,1.1044414419071675,17.322133972255834)"><path class="outline" d="M 0.00003121003023428277 -0.12787578777862957 C -0.05714569320301218 -0.12787578777862957 -0.1278756759147218 -0.05713401141494239 -0.1278756759147218 -0.00003132189414164925 C -0.1278756759147218 0.0570716872378239 -0.057071767140614446 0.12787578777862957 0.00003121003023428277 0.12787578777862957 C 0.057134506812247826 0.12787578777862957 0.12787567591472226 0.05714615663920163 0.12787567591472226 -0.00003132189414164925 C 0.12787567591472226 -0.05720816120515531 0.05720843287464556 -0.12787578777862957 0.00003121003023428277 -0.12787578777862957 C 0.00003121003023428277 -0.12787578777862957 0.00003121003023428277 -0.12787578777862957 0.00003121003023428277 -0.12787578777862957" stroke-width="0.01"></path></g></g><g fill="rgb(220,220,220)" stroke="none"><g><path class="fill" d="M5.18335690078002,11.812351439062187L5.3489846805684635,12.160938335492531L5.116249342470986,12.156605418289404L5.0008021043549435,11.88169029723934L4.9957256852419345,12.154361586166356L4.778783102229643,12.15032268834487L4.793081682731285,11.382298557867106L5.010024265743577,11.386337455688592L5.00420753550992,11.698773307584132L5.130547922972627,11.38858128781164L5.378244818519229,11.39319274969211L5.18335690078002,11.812351439062187Z M5.664564809570228,12.181588417942226L5.629791301145874,12.179195452489932L5.596603804984247,12.173390810139916L5.565100767927497,12.164251241076393L5.535380636817772,12.151853495483584L5.50754185849722,12.136274323545704L5.481682879807991,12.117590475446972L5.4579021475922325,12.095878701371607L5.4362981086920925,12.071215751503823L5.416969209949721,12.043678376027842L5.4000138982072645,12.013343325127883L5.3855306203068745,11.980287348988162L5.373617823090697,11.944587197792897L5.364373953400882,11.906319621726306L5.357897458079578,11.865561370972607L5.354286783968933,11.822389195716017L5.353640377911097,11.776879846140758L5.355980276641418,11.731426093672049L5.361195395398845,11.688418231364503L5.369184498780928,11.647929291846424L5.379846351385214,11.610032307746115L5.39307971780925,11.57480031169188L5.408783362650583,11.542306336312018L5.426856050506761,11.512623414234834L5.447196545975334,11.485824578088634L5.469703613653847,11.461982860501717L5.494276018139848,11.441171294102386L5.520812524030886,11.423462911518946L5.549211895924507,11.408930745379699L5.579372898418259,11.397647828312948L5.611194296109691,11.389687192946996L5.644574853596348,11.385121871910147L5.67941333547578,11.3840248978307L5.71404053201156,11.386415139342125L5.747099979904545,11.392217397771631L5.778492014737923,11.401354900266977L5.808116972094886,11.413750873975923L5.835875187558623,11.429328546046225L5.86166699671232,11.448011143625639L5.88539273513917,11.469721893861927L5.90695273842236,11.494384023902844L5.92624734214508,11.521920760896151L5.943176881890519,11.552255331989606L5.957641693241866,11.585310964330965L5.969542111782311,11.621010885067989L5.978778473095042,11.659278321348433L5.985251112763249,11.700036500320056L5.9888603663701225,11.743208649130617L5.9895065694988485,11.788717994927872L5.987166873697638,11.834171751174585L5.981953175443982,11.877179639928158L5.973967927714996,11.917668651228313L5.963313583487794,11.955565775114769L5.950092595739491,11.990798001627248L5.934407417447201,12.02329232080547L5.916360501588038,12.05297572268916L5.896054301139118,12.079775197318034L5.873591269077556,12.103617734731815L5.849073858380464,12.124430324970223L5.8226045220249585,12.142139958072981L5.794285712988152,12.156673624079808L5.764219884247162,12.167958313030423L5.732509488779102,12.175921014964551L5.699256979561086,12.180488719921913L5.664564809570228,12.181588417942226L5.664564809570228,12.181588417942226Z M5.675309896692764,11.604434189713373L5.651876526724415,11.60700349592396L5.6314505884553645,11.615515632554263L5.614035552093991,11.629784203215365L5.599634887848674,11.649622811518352L5.588252065927789,11.674845061074308L5.579890556539715,11.705264555494317L5.574553829892832,11.740694898389465L5.572245356195514,11.780949693370838L5.57305387363343,11.821262518493324L5.577068120392248,11.856866951811812L5.584291566680344,11.887576596937386L5.5947276827060985,11.913205057481136L5.608379938677887,11.93356593705414L5.625251804804089,11.94847283926749L5.645346751293082,11.957739367732266L5.668668248353244,11.961179126059553L5.691827258164377,11.958604711987585L5.712047020457295,11.95008873690524L5.729314324426321,11.935817415857242L5.74361595926578,11.915976963888316L5.754938714169995,11.890753596043183L5.763269378333293,11.860333527366567L5.768594740949997,11.824902972903196L5.7709015912144315,11.784648147697792L5.770094697209398,11.74433535279934L5.766091814480761,11.708731131049074L5.75889921341744,11.678022060180101L5.748523164408354,11.652394717925532L5.734969937842425,11.632035682018467L5.7182458041085695,11.617131530192015L5.69835703359571,11.607868840179282L5.675309896692764,11.604434189713373L5.675309896692764,11.604434189713373Z M6.246604426372276,11.958300481099537L6.249642150121956,11.972386005593435L6.258857155396143,11.981259077750648L6.27345036464887,11.98597031225827L6.292622700334166,11.987570323803393L6.341229558930294,11.984568453310285L6.38691632974253,11.975119270095362L6.427227685116748,11.961308045244007L6.4597082973988185,11.945220049841598L6.489937782650013,12.152630240154092L6.440779713431918,12.169189105723538L6.387944710090456,12.18226994401206L6.332079966567264,12.190606214381035L6.273832676803982,12.19293137619184L6.24761359242043,12.19135472454797L6.222614586104935,12.187638172958515L6.198904656821199,12.181804648795975L6.176552803532925,12.173877079432856L6.155628025203811,12.163878392241656L6.13619932079756,12.151831514594882L6.118335689277874,12.137759373865034L6.102106129608455,12.121684897424615L6.087579640753004,12.10363101264613L6.074825221675222,12.083620646902075L6.063911871338812,12.061676727564958L6.054908588707474,12.037822182007282L6.04788437274491,12.012079937601548L6.042908222414824,11.98447292172026L6.040049136680915,11.955024061735918L6.039376114506885,11.923756285021026L6.043014276697135,11.873118836098454L6.052008486423182,11.829846422117338L6.0655890825452,11.793278759859042L6.0829864039233685,11.762755566104929L6.103430789417863,11.737616557636354L6.12615257788886,11.717201451234684L6.150382108196537,11.700849963681279L6.175349719201069,11.6879018117575L6.224420538741409,11.669574381924267L6.267207747391293,11.656936895985877L6.284320844782756,11.651101173930652L6.297554056032135,11.64470708819322L6.306137719999606,11.637094355554943L6.309302175545348,11.627602692797186L6.307262895945977,11.616412583476315L6.299807147114007,11.607252616606766L6.285594344007235,11.600950227156464L6.263283901583458,11.59833285009333L6.234568255399959,11.599039094142906L6.208049568990185,11.602117002217843L6.183400875870474,11.607334070143395L6.1602952095571695,11.614457793744815L6.117405091415136,11.633495191276271L6.0767634826948065,11.657369161414234L6.046555149189917,11.44882284073121L6.0959931020959335,11.426302434015797L6.150089283624813,11.408983109932963L6.179582967266093,11.402686422166L6.211079716635009,11.398185087001862L6.244859034588865,11.395644131755445L6.281200423984972,11.395228583741643L6.308308334402136,11.396723835461607L6.334105418950579,11.40019580910249L6.3585253708864835,11.405673237153508L6.381501883466031,11.413184852103878L6.4029686499454,11.422759386442815L6.4228593635807725,11.43442557265953L6.441107717628327,11.448212143243241L6.457647405344245,11.464147830683165L6.472412119984707,11.482261367468515L6.485335554805893,11.502581486088506L6.496351403063983,11.525136919032349L6.505393358015159,11.549956398789266L6.512395112915598,11.57706865784847L6.517290361021484,11.606502428699173L6.520012795588996,11.63828644383059L6.520496109874314,11.672449435731943L6.516598482112347,11.719795679053604L6.507318421997354,11.760409031737053L6.493431576391931,11.794889954548015L6.4757135921586695,11.823838908252219L6.454940116160164,11.847856353615388L6.431886795259008,11.86754275140325L6.407329276317796,11.883498562381526L6.38204320619912,11.896324247315947L6.332387999879754,11.91498708211612L6.289126351201658,11.92833494192957L6.271832228134571,11.93451690813059L6.258463435065583,11.941171512882107L6.249795618857286,11.948899216949847L6.246604426372276,11.958300481099537L6.246604426372276,11.958300481099537Z M6.997249592880243,12.191624674113248L6.902180412485981,11.93868289771066L6.798593357861323,12.187926219786293L6.58081957721297,12.183871847260509L6.595118157714611,11.415847716782745L6.79709918327778,11.419608069926888L6.78980183080283,11.811573047759474L6.906582288872965,11.568257972805238L6.911569474689339,11.56835082103102L7.020043575992119,11.81585954084971L7.02734092846707,11.423894563017123L7.2293219540302385,11.427654916161266L7.215023373528597,12.19567904663903L6.997249592880243,12.191624674113248Z M7.6037488945038545,12.21769090306685L7.568975386079501,12.215297937614558L7.535787889917874,12.209493295264542L7.504284852861124,12.200353726201019L7.474564721751399,12.187955980608209L7.446725943430847,12.172376808670327L7.420866964741618,12.153692960571595L7.39708623252586,12.13198118649623L7.37548219362572,12.107318236628448L7.356153294883348,12.079780861152468L7.339197983140892,12.049445810252507L7.324714705240502,12.016389834112786L7.3128019080243245,11.980689682917522L7.30355803833451,11.94242210685093L7.297081543013205,11.901663856097231L7.29347086890256,11.858491680840643L7.292824462844723,11.812982331265383L7.295164361575043,11.767528578796675L7.300379480332472,11.724520716489128L7.3083685837145556,11.68403177697105L7.319030436318841,11.64613479287074L7.332263802742878,11.610902796816502L7.34796744758421,11.578408821436641L7.366040135440389,11.548725899359457L7.386380630908961,11.521927063213257L7.408887698587472,11.49808534562634L7.4334601030734735,11.477273779227009L7.459996608964511,11.459565396643569L7.488395980858132,11.445033230504322L7.518556983351885,11.433750313437573L7.550378381043316,11.425789678071622L7.583758938529973,11.421224357034774L7.618597420409406,11.420127382955327L7.653224616945185,11.422517624466751L7.68628406483817,11.428319882896258L7.717676099671548,11.437457385391603L7.747301057028512,11.449853359100548L7.775059272492248,11.465431031170848L7.800851081645947,11.484113628750263L7.824576820072796,11.505824378986553L7.846136823355986,11.53048650902747L7.865431427078706,11.558023246020777L7.8823609668241446,11.588357817114233L7.896825778175492,11.621413449455591L7.908726196715937,11.657113370192615L7.917962558028668,11.695380806473059L7.924435197696875,11.736138985444683L7.928044451303748,11.779311134255243L7.928690654432474,11.824820480052498L7.9263509586312635,11.870274236299212L7.921137260377607,11.913282125052785L7.913152012648622,11.95377113635294L7.902497668421421,11.991668260239395L7.8892766806731185,12.026900486751874L7.873591502380828,12.059394805930097L7.855544586521665,12.089078207813786L7.835238386072746,12.11587768244266L7.812775354011183,12.139720219856441L7.7882579433140915,12.16053281009485L7.761788606958586,12.178242443197606L7.73346979792178,12.192776109204432L7.70340396918079,12.204060798155048L7.671693573712728,12.212023500089177L7.638441064494712,12.216591205046537L7.6037488945038545,12.21769090306685L7.6037488945038545,12.21769090306685Z M7.61449398162639,11.640536674837998L7.59106061165804,11.643105981048587L7.57063467338899,11.65161811767889L7.553219637027617,11.665886688339992L7.538818972782299,11.685725296642978L7.527436150861415,11.710947546198934L7.519074641473341,11.741367040618943L7.513737914826457,11.776797383514092L7.511429441129139,11.817052178495462L7.512237958567056,11.85736500361795L7.516252205325874,11.892969436936438L7.523475651613971,11.923679082062012L7.533911767639724,11.949307542605762L7.547564023611512,11.969668422178767L7.564435889737714,11.984575324392116L7.584530836226707,11.993841852856892L7.6078523332868695,11.99728161118418L7.631011343098002,11.994707197112211L7.65123110539092,11.986191222029866L7.668498409359946,11.971919900981867L7.682800044199405,11.952079449012938L7.694122799103621,11.926856081167806L7.702453463266919,11.896436012491193L7.707778825883623,11.861005458027822L7.710085676148058,11.820750632822417L7.7092787821430235,11.780437837923966L7.705275899414387,11.7448336161737L7.698083298351065,11.714124545304728L7.687707249341981,11.688497203050158L7.674154022776051,11.668138167143093L7.657429889042197,11.653234015316642L7.637541118529336,11.643971325303907L7.61449398162639,11.640536674837998L7.61449398162639,11.640536674837998Z M8.185788511305901,11.994402966224161L8.188826235055583,12.00848849071806L8.19804124032977,12.017361562875273L8.212634449582499,12.022072797382894L8.231806785267793,12.023672808928017L8.28041364386392,12.02067093843491L8.326100414676155,12.011221755219987L8.366411770050373,11.997410530368631L8.398892382332445,11.981322534966225L8.429121867583639,12.188732725278717L8.379963798365544,12.205291590848162L8.32712879502408,12.218372429136684L8.27126405150089,12.226708699505659L8.213016761737608,12.229033861316466L8.186797677354056,12.227457209672597L8.16179867103856,12.223740658083141L8.138088741754826,12.217907133920601L8.11573688846655,12.209979564557482L8.094812110137436,12.199980877366283L8.075383405731186,12.187933999719508L8.0575197742115,12.173861858989657L8.04129021454208,12.157787382549238L8.02676372568663,12.139733497770752L8.014009306608848,12.119723132026698L8.003095956272439,12.09777921268958L7.994092673641101,12.073924667131905L7.987068457678538,12.048182422726173L7.98209230734845,12.020575406844884L7.979233221614541,11.99112654686054L7.97856019944051,11.959858770145651L7.98219836163076,11.909221321223077L7.991192571356807,11.865948907241963L8.004773167478827,11.829381244983667L8.022170488856995,11.798858051229551L8.04261487435149,11.773719042760977L8.065336662822485,11.753303936359309L8.089566193130162,11.736952448805903L8.114533804134695,11.724004296882125L8.163604623675035,11.70567686704889L8.206391832324918,11.6930393811105L8.22350492971638,11.687203659055275L8.236738140965759,11.680809573317845L8.24532180493323,11.67319684067957L8.248486260478973,11.66370517792181L8.2464469808796,11.652515068600941L8.238991232047631,11.643355101731391L8.224778428940859,11.637052712281088L8.202467986517084,11.634435335217955L8.173752340333586,11.63514157926753L8.147233653923813,11.638219487342468L8.122584960804101,11.643436555268021L8.099479294490797,11.650560278869442L8.056589176348762,11.669597676400898L8.015947567628434,11.693471646538859L7.9857392341235425,11.484925325855835L8.035177187029559,11.462404919140424L8.08927336855844,11.44508559505759L8.11876705219972,11.438788907290624L8.150263801568636,11.434287572126486L8.184043119522492,11.43174661688007L8.220384508918597,11.43133106886627L8.24749241933576,11.432826320586233L8.273289503884204,11.436298294227116L8.297709455820112,11.441775722278134L8.320685968399658,11.449287337228505L8.342152734879027,11.458861871567441L8.362043448514399,11.470528057784156L8.380291802561953,11.484314628367867L8.396831490277872,11.50025031580779L8.411596204918332,11.518363852593138L8.424519639739518,11.538683971213128L8.435535487997608,11.561239404156971L8.444577442948784,11.58605888391389L8.451579197849224,11.613171142973092L8.45647444595511,11.642604913823796L8.459196880522622,11.674388928955217L8.45968019480794,11.70855192085657L8.455782567045972,11.75589816417823L8.44650250693098,11.79651151686168L8.432615661325555,11.830992439672642L8.414897677092295,11.859941393376845L8.394124201093788,11.883958838740014L8.371070880192633,11.903645236527876L8.34651336125142,11.919601047506152L8.321227291132745,11.932426732440574L8.271572084813378,11.951089567240746L8.228310436135283,11.964437427054197L8.211016313068196,11.970619393255216L8.197647519999208,11.977273998006734L8.188979703790912,11.985001702074474L8.185788511305901,11.994402966224161L8.185788511305901,11.994402966224161Z M9.219386241483086,11.812481049264322L9.164527197502965,11.811459718780728L9.156701051370408,12.231827955876547L8.908172958187745,12.227201019291778L8.693984728506418,11.80724555763081L8.697982408557912,11.592516917600785L8.973108826094574,11.597639044723053L8.975668187397384,11.460167269889014L9.170999631872052,11.46380382539878L9.168440270569242,11.60127560023282L9.223299314549363,11.602296930716413L9.219386241483086,11.812481049264322Z M8.86706420252414,11.800239122789797L8.969777096083199,11.999906569411886L8.97345749994013,11.802219884939799L8.86706420252414,11.800239122789797Z M9.296510474917477,11.46614050574761L9.491841919392147,11.469777061257378L9.487611570131307,11.697003135363225L9.292280125656637,11.693366579853459L9.296510474917477,11.46614050574761Z M9.80309783952502,12.2586369706364L9.770908030988442,12.256117299668093L9.741025807704583,12.249896386468112L9.713426557721228,12.240118613064132L9.68808566908616,12.226928361483823L9.664978529847168,12.210470013754863L9.644080528052042,12.190887951904926L9.625367051748565,12.168326557961686L9.608813488984524,12.142930213952816L9.594395227807706,12.114843301905989L9.582087656265898,12.084210203848876L9.571866162406886,12.051175301809158L9.563706134278458,12.015882977814503L9.557582959928402,11.978477613892586L9.553472027404503,11.939103592071083L9.551348724754547,11.897905294377667L9.55118844002632,11.85502710284001L9.552944617816395,11.812184590771928L9.556599924513245,11.771093875519812L9.56217358085249,11.73190015516019L9.569684807569757,11.694748627769597L9.579152825400673,11.659784491424567L9.590596855080864,11.627152944201633L9.604036117345954,11.596999184177326L9.61948983293157,11.569468409428183L9.63697722257334,11.544705818030735L9.656517507006889,11.522856608061517L9.67812990696784,11.504065977597062L9.701833643191822,11.4884791247139L9.72764793641446,11.476241247488566L9.75559200737138,11.467497543997597L9.785685076798208,11.462393212317522L9.81794636543057,11.461073450524875L9.850136173967146,11.463593121493183L9.880018397251005,11.469814034693162L9.90761764723436,11.479591808097142L9.932958535869428,11.49278205967745L9.95606567510842,11.509240407406411L9.976963676903546,11.528822469256347L9.995677153207023,11.55138386319959L10.012230715971064,11.576780207208461L10.026648977147882,11.604867119255289L10.03895654868969,11.635500217312401L10.049178042548702,11.66853511935212L10.05733807067713,11.703827443346775L10.063461245027186,11.741232807268691L10.067572177551085,11.780606829090193L10.069695480201041,11.821805126783609L10.069855764929269,11.864683318321266L10.068099587139193,11.907525830389346L10.064444280442343,11.948616545641464L10.058870624103099,11.987810266001086L10.05135939738583,12.024961793391679L10.041891379554915,12.059925929736709L10.030447349874724,12.092557476959644L10.017008087609634,12.12271123698395L10.001554372024017,12.150242011733091L9.984066982382249,12.17500460313054L9.964526697948703,12.196853813099759L9.942914297987748,12.215644443564216L9.919210561763768,12.231231296447376L9.893396268541128,12.243469173672707L9.86545219758421,12.252212877163679L9.835359128157382,12.257317208843753L9.80309783952502,12.2586369706364L9.80309783952502,12.2586369706364Z M9.814012140617988,11.672393699443314L9.80155564662278,11.675558046268133L9.791451807047935,11.685292328129485L9.78345480252452,11.701192409245014L9.777318813683614,11.722854153832364L9.772798021156284,11.749873426109183L9.769646605573605,11.781846090293115L9.766468627766486,11.859035051252903L9.766771290060376,11.936288812536933L9.768730441193174,11.968356621973065L9.772242394570604,11.99552544275938L9.777567841883215,12.01740056901145L9.784967474821553,12.033587294844853L9.794701985076166,12.043690914375166L9.807032064337601,12.047316721717962L9.819488558332807,12.044152374893141L9.829592397907653,12.034418093031793L9.837589402431067,12.018518011916264L9.843725391271974,11.996856267328912L9.848246183799304,11.969836995052093L9.851397599381983,11.93786433086816L9.854575577189102,11.860675369908373L9.854272914895212,11.78342160862434L9.852313763762414,11.751353799188209L9.848801810384984,11.724184978401896L9.843476363072373,11.702309852149826L9.836076730134035,11.686123126316422L9.826342219879422,11.676019506786112L9.814012140617988,11.672393699443314L9.814012140617988,11.672393699443314Z"></path></g></g></g>
        </g>
      </svg>